HIERARCHY
ROOT root
{
	OFFSET 0.000000 0.000000 0.000000
	CHANNELS 6 Xposition Yposition Zposition Zrotation Yrotation Xrotation
	JOINT lhip
	{
		OFFSET 0.058581 -0.082280 -0.017664
		CHANNELS 3 Zrotation Yrotation Xrotation
		JOINT lknee
		{
			OFFSET 0.043451 -0.386469 0.008037
			CHANNELS 3 Zrotation Yrotation Xrotation
			JOINT lankle
			{
				OFFSET -0.014790 -0.426874 -0.037428
				CHANNELS 3 Zrotation Yrotation Xrotation
				JOINT ltoe
				{
					OFFSET 0.041054 -0.060286 0.122042
					CHANNELS 3 Zrotation Yrotation Xrotation
					End Site
					{
						OFFSET 0.000000 0.000000 0.000000
					}
				}
			}
		}
	}
	JOINT rhip
	{
		OFFSET -0.060310 -0.090513 -0.013543
		CHANNELS 3 Zrotation Yrotation Xrotation
		JOINT rknee
		{
			OFFSET -0.043257 -0.383688 -0.004843
			CHANNELS 3 Zrotation Yrotation Xrotation
			JOINT rankle
			{
				OFFSET 0.019056 -0.420046 -0.034562
				CHANNELS 3 Zrotation Yrotation Xrotation
				JOINT rtoe
				{
					OFFSET -0.034840 -0.062106 0.130323
					CHANNELS 3 Zrotation Yrotation Xrotation
					End Site
					{
						OFFSET 0.000000 0.000000 0.000000
					}
				}
			}
		}
	}
	JOINT lowerback
	{
		OFFSET 0.004439 0.124404 -0.038385
		CHANNELS 3 Zrotation Yrotation Xrotation
		JOINT upperback
		{
			OFFSET 0.004488 0.137956 0.026820
			CHANNELS 3 Zrotation Yrotation Xrotation
			JOINT chest
			{
				OFFSET -0.002265 0.056032 0.002855
				CHANNELS 3 Zrotation Yrotation Xrotation
				JOINT lowerneck
				{
					OFFSET -0.013390 0.211636 -0.033468
					CHANNELS 3 Zrotation Yrotation Xrotation
					JOINT upperneck
					{
						OFFSET 0.010113 0.088937 0.050410
						CHANNELS 3 Zrotation Yrotation Xrotation
						End Site
						{
							OFFSET 0.000000 0.000000 0.000000
						}
					}
				}
				JOINT lclavicle
				{
					OFFSET 0.071702 0.114000 -0.018898
					CHANNELS 3 Zrotation Yrotation Xrotation
					JOINT lshoulder
					{
						OFFSET 0.122921 0.045205 -0.019046
						CHANNELS 3 Zrotation Yrotation Xrotation
						JOINT lelbow
						{
							OFFSET 0.255332 -0.015649 -0.022946
							CHANNELS 3 Zrotation Yrotation Xrotation
							JOINT lwrist
							{
								OFFSET 0.265709 0.012698 -0.007375
								CHANNELS 3 Zrotation Yrotation Xrotation
								End Site
								{
									OFFSET 0.000000 0.000000 0.000000
								}
							}
						}
					}
				}
				JOINT rclavicle
				{
					OFFSET -0.082954 0.112472 -0.023707
					CHANNELS 3 Zrotation Yrotation Xrotation
					JOINT rshoulder
					{
						OFFSET -0.113228 0.046853 -0.008472
						CHANNELS 3 Zrotation Yrotation Xrotation
						JOINT relbow
						{
							OFFSET -0.260127 -0.014369 -0.031269
							CHANNELS 3 Zrotation Yrotation Xrotation
							JOINT rwrist
							{
								OFFSET -0.269108 0.006794 -0.006027
								CHANNELS 3 Zrotation Yrotation Xrotation
								End Site
								{
									OFFSET 0.000000 0.000000 0.000000
								}
							}
						}
					}
				}
			}
		}
	}
}
MOTION
Frames: 5
Frame Time: 0.033333
1.002867 0.601975 0.984692 -92.202600 9.701507 96.232647 17.437204 3.416276 -20.066365 -4.473612 -7.024083 21.000125 -1.899135 6.465034 -16.583480 0.000000 -0.000000 0.000000 -27.983002 -4.419469 -8.902937 -3.112076 12.395602 24.881337 22.025777 3.349967 4.724054 0.000000 -0.000000 0.000000 1.400565 0.917825 29.345608 5.766615 -7.171456 5.282165 2.793192 -4.088903 3.834174 -1.874942 10.258964 6.724697 5.306481 4.424787 8.220642 -16.606752 -1.957108 -1.821287 -39.360520 -16.403322 1.753786 2.985043 -53.327855 6.659171 3.818334 -5.768060 -15.598153 24.102672 -5.720588 -3.713301 52.005981 -4.485067 8.296568 -32.063302 46.961968 -30.251913 3.198902 -0.582390 -4.770324 
0.997802 0.584179 0.986727 -92.024388 10.178106 95.364339 16.751616 3.337248 -18.551805 -4.608877 -7.097164 20.284640 -1.190419 6.501831 -17.039677 0.000000 -0.000000 0.000000 -28.806063 -5.253221 -7.741116 -3.264151 11.372911 23.595638 23.208473 3.101775 9.462545 0.000000 -0.000000 0.000000 1.789000 0.891352 29.353092 5.840911 -7.426768 7.673949 2.436529 -3.979629 3.129059 -1.350808 9.871865 5.507741 5.240677 3.201555 8.838287 -16.921572 -1.568685 -2.513059 -40.961034 -16.363693 2.816599 1.151773 -51.835584 8.836305 3.088744 -5.731982 -15.775549 24.443129 -6.300434 -4.444762 52.627510 -4.672362 8.746704 -31.169342 45.440333 -28.958192 2.760042 -0.605112 -3.312228 
0.994260 0.567915 0.989471 -92.453072 10.483915 95.533710 15.818297 3.173433 -17.802127 -4.485671 -7.132321 18.994378 0.108690 7.168389 -16.848574 0.000000 -0.000000 0.000000 -28.190175 -5.086743 -9.596427 -3.584904 11.166246 25.604011 20.073054 0.273778 11.486592 0.000000 -0.000000 0.000000 1.751996 0.360739 29.643839 5.478619 -6.744943 6.332524 2.437064 -4.121530 3.811252 -2.062222 8.635704 5.557495 5.408937 4.389966 8.732331 -17.623011 -0.730111 -1.400357 -42.210950 -15.632004 2.912066 0.145917 -51.094714 10.873122 2.547038 -5.391125 -15.845242 24.311605 -6.613513 -3.725702 53.272984 -4.711929 8.760501 -29.632946 44.102431 -26.747318 3.568209 -0.654139 -1.666870 
0.991516 0.552638 0.991563 -92.690402 10.195522 95.369427 14.285004 2.558647 -16.671483 -4.213505 -7.435891 17.303060 1.297660 7.825872 -16.076857 0.000000 -0.000000 0.000000 -26.842065 -3.688529 -12.183100 -4.515909 10.412625 30.525598 14.586783 -4.110090 8.924067 0.000000 -0.000000 0.000000 1.036078 -0.157332 29.403135 5.264350 -6.408890 6.201030 2.444878 -4.246168 4.439462 -2.189849 7.980092 5.532202 5.142552 5.190355 8.737203 -18.098724 -0.147582 -0.335655 -43.390766 -14.787462 2.897002 0.173810 -50.155678 11.389505 2.188362 -5.021310 -15.729489 24.082881 -6.341440 -3.138606 54.198258 -4.613492 9.207626 -29.233672 42.536321 -25.525243 4.634018 -0.710718 -0.582065 
0.987947 0.539519 0.992342 -92.085920 9.309285 95.139184 12.160686 1.744060 -15.524535 -3.932862 -8.413679 15.641764 2.067055 8.816515 -15.721338 0.000000 -0.000000 0.000000 -25.178766 -1.942904 -14.539542 -6.527198 7.832077 37.312321 12.290974 -8.867505 0.349024 0.000000 -0.000000 0.000000 0.316509 -0.943022 29.628713 5.066823 -6.144415 4.895437 2.441625 -4.576806 5.278514 -2.036522 7.501612 6.763895 4.437024 5.240137 7.937344 -18.551097 -0.001253 1.037675 -44.450401 -13.770800 3.147922 0.656599 -48.830379 11.205001 2.531458 -4.629406 -16.001225 24.109756 -6.413026 -3.000095 54.881966 -5.504191 9.188769 -28.853562 41.828265 -24.642449 4.303074 -0.530104 0.266711 
